<svg xmlns="http://www.w3.org/2000/svg" xmlns:xlink="http://www.w3.org/1999/xlink" width="500" height="500" viewBox="0 0 500 500"><defs><linearGradient id="a" x1="-0.019" y1="0.088" x2="1" y2="0.974" gradientUnits="objectBoundingBox"><stop offset="0" stop-color="#f17875"/><stop offset="1" stop-color="#f6c4c3"/></linearGradient><filter id="b" x="187" y="-120" width="398" height="398" filterUnits="userSpaceOnUse"><feOffset dy="5" input="SourceAlpha"/><feGaussianBlur stdDeviation="5" result="c"/><feFlood flood-color="#f17875" flood-opacity="0.2"/><feComposite operator="in" in2="c"/><feComposite in="SourceGraphic"/></filter><linearGradient id="d" y1="0.049" x2="0.929" y2="0.932" gradientUnits="objectBoundingBox"><stop offset="0" stop-color="#4bc3c2"/><stop offset="1" stop-color="#c8fefe"/><stop offset="1"/></linearGradient><filter id="e" x="-61" y="-130" width="341" height="341" filterUnits="userSpaceOnUse"><feOffset dy="10" input="SourceAlpha"/><feGaussianBlur stdDeviation="10" result="f"/><feFlood flood-color="#9cf5f5" flood-opacity="0.2"/><feComposite operator="in" in2="f"/><feComposite in="SourceGraphic"/></filter><linearGradient id="g" x1="0.045" y1="0.143" x2="1" y2="1" gradientUnits="objectBoundingBox"><stop offset="0" stop-color="#fef200"/><stop offset="1" stop-color="#f9f7ca"/></linearGradient><filter id="h" x="-14.5" y="228.5" width="260" height="260" filterUnits="userSpaceOnUse"><feOffset dy="8" input="SourceAlpha"/><feGaussianBlur stdDeviation="7.5" result="i"/><feFlood flood-color="#fef200" flood-opacity="0.2"/><feComposite operator="in" in2="i"/><feComposite in="SourceGraphic"/></filter><linearGradient id="j" y1="0.132" x2="0.906" y2="0.866" gradientUnits="objectBoundingBox"><stop offset="0" stop-color="#4bc3c2"/><stop offset="1" stop-color="#82e1e0"/></linearGradient><linearGradient id="k" x2="1" y2="1" gradientUnits="objectBoundingBox"><stop offset="0" stop-color="#fef200"/><stop offset="1" stop-color="#fbf689"/></linearGradient><linearGradient id="l" x2="1" y2="1" gradientUnits="objectBoundingBox"><stop offset="0" stop-color="#f17875"/><stop offset="1" stop-color="#ef9492"/></linearGradient><linearGradient id="m" x1="0.479" y1="0.29" x2="0.481" y2="1.104" gradientUnits="objectBoundingBox"><stop offset="0" stop-color="#fff" stop-opacity="0"/><stop offset="1" stop-color="#fff"/></linearGradient><clipPath id="o"><rect width="500" height="500"/></clipPath></defs><g id="n" clip-path="url(#o)"><rect width="500" height="500" fill="#fff"/><g transform="matrix(1, 0, 0, 1, 0, 0)" filter="url(#b)"><circle cx="184" cy="184" r="184" transform="translate(202 -110)" fill="url(#a)"/></g><g transform="matrix(1, 0, 0, 1, 0, 0)" filter="url(#e)"><circle cx="140.5" cy="140.5" r="140.5" transform="translate(-31 -110)" fill="url(#d)"/></g><g transform="matrix(1, 0, 0, 1, 0, 0)" filter="url(#h)"><circle cx="107.5" cy="107.5" r="107.5" transform="translate(8 243)" fill="url(#g)"/></g><circle cx="25" cy="25" r="25" transform="translate(245 360)" fill="url(#j)"/><rect width="71" height="71" transform="translate(364.006 395.506) rotate(-30)" fill="url(#k)"/><rect width="28" height="28" transform="translate(36 215)" fill="url(#l)"/><rect width="500" height="500" fill="url(#m)"/></g></svg>