<?xml version="1.0" standalone="no"?><!DOCTYPE svg PUBLIC "-//W3C//DTD SVG 1.1//EN" "http://www.w3.org/Graphics/SVG/1.1/DTD/svg11.dtd"><svg t="1531055503723" class="icon" style="" viewBox="0 0 1024 1024" version="1.1" xmlns="http://www.w3.org/2000/svg" p-id="8187" xmlns:xlink="http://www.w3.org/1999/xlink" width="48" height="48"><defs><style type="text/css"></style></defs><path d="M573.984 93.856c-226.4 0-522.72 382.4-535.232 398.656-8.832 11.488-8.832 27.488 0 39.008 12.512 16.288 308.832 398.656 535.232 398.656 230.56 0 418.144-187.584 418.144-418.144C992.128 281.408 804.544 93.856 573.984 93.856zM573.984 866.144C421.44 866.144 197.024 626.56 104.832 512c92.128-114.592 316.48-354.144 469.12-354.144 195.296 0 354.144 158.88 354.144 354.144S769.248 866.144 573.984 866.144z" p-id="8188" fill="#ffffff"></path><path d="M758.88 367.168c-12.384-12.544-32.704-12.704-45.248-0.256l-105.728 104.576-104.128-104.416c-12.48-12.512-32.736-12.544-45.248-0.064-12.512 12.48-12.544 32.736-0.064 45.248l103.936 104.224-104.768 103.648c-12.576 12.448-12.672 32.672-0.256 45.248 6.272 6.336 14.496 9.504 22.752 9.504 8.128 0 16.256-3.104 22.496-9.248l104.96-103.808 105.888 106.176c6.24 6.272 14.432 9.408 22.656 9.408 8.192 0 16.352-3.136 22.592-9.344 12.512-12.48 12.544-32.736 0.064-45.248l-105.696-106.016 105.536-104.384C771.2 400 771.328 379.712 758.88 367.168z" p-id="8189" fill="#ffffff"></path></svg>