<svg xmlns="http://www.w3.org/2000/svg" xmlns:xlink="http://www.w3.org/1999/xlink" width="500" height="300" viewBox="0 0 500 300"><defs><linearGradient id="a" y1="0.049" x2="0.929" y2="0.932" gradientUnits="objectBoundingBox"><stop offset="0" stop-color="#4bc3c2"/><stop offset="1" stop-color="#9cf5f5"/><stop offset="1"/></linearGradient><filter id="b" x="-39" y="-155" width="397" height="397" filterUnits="userSpaceOnUse"><feOffset dy="10" input="SourceAlpha"/><feGaussianBlur stdDeviation="10" result="c"/><feFlood flood-color="#9cf5f5" flood-opacity="0.502"/><feComposite operator="in" in2="c"/><feComposite in="SourceGraphic"/></filter><linearGradient id="d" x1="0.045" y1="0.143" x2="1" y2="1" gradientUnits="objectBoundingBox"><stop offset="0" stop-color="#fef200"/><stop offset="0.946" stop-color="#fffa93"/><stop offset="1" stop-color="#f5ee54"/></linearGradient><filter id="e" x="119.5" y="211.5" width="134" height="134" filterUnits="userSpaceOnUse"><feOffset dy="8" input="SourceAlpha"/><feGaussianBlur stdDeviation="7.5" result="f"/><feFlood flood-color="#fef200" flood-opacity="0.502"/><feComposite operator="in" in2="f"/><feComposite in="SourceGraphic"/></filter><linearGradient id="g" y1="0.132" x2="0.906" y2="0.866" gradientUnits="objectBoundingBox"><stop offset="0" stop-color="#4bc3c2"/><stop offset="1" stop-color="#82e1e0"/></linearGradient><linearGradient id="h" x1="-0.019" y1="0.088" x2="1" y2="0.974" gradientUnits="objectBoundingBox"><stop offset="0" stop-color="#f17875"/><stop offset="1" stop-color="#f09694"/></linearGradient><filter id="i" x="385" y="76" width="276" height="276" filterUnits="userSpaceOnUse"><feOffset dy="5" input="SourceAlpha"/><feGaussianBlur stdDeviation="5" result="j"/><feFlood flood-color="#f17875" flood-opacity="0.502"/><feComposite operator="in" in2="j"/><feComposite in="SourceGraphic"/></filter><linearGradient id="k" x2="1" y2="1" gradientUnits="objectBoundingBox"><stop offset="0" stop-color="#fef200"/><stop offset="1" stop-color="#fbf689"/></linearGradient><linearGradient id="l" x2="1" y2="1" gradientUnits="objectBoundingBox"><stop offset="0" stop-color="#f17875"/><stop offset="1" stop-color="#ef9492"/></linearGradient><clipPath id="n"><rect width="500" height="300"/></clipPath></defs><g id="m" clip-path="url(#n)"><rect width="500" height="300" fill="#fefefe"/><g transform="matrix(1, 0, 0, 1, 0, 0)" filter="url(#b)"><circle cx="168.5" cy="168.5" r="168.5" transform="translate(-9 -135)" fill="url(#a)"/></g><g transform="matrix(1, 0, 0, 1, 0, 0)" filter="url(#e)"><circle cx="44.5" cy="44.5" r="44.5" transform="translate(142 226)" fill="url(#d)"/></g><circle cx="25" cy="25" r="25" transform="translate(290 215)" fill="url(#g)"/><g transform="matrix(1, 0, 0, 1, 0, 0)" filter="url(#i)"><circle cx="123" cy="123" r="123" transform="translate(400 86)" fill="url(#h)"/></g><rect width="45" height="45" transform="translate(379 60)" fill="url(#k)"/><rect width="28" height="28" transform="translate(-9 212)" fill="url(#l)"/></g></svg>