<?xml version="1.0" standalone="no"?><!DOCTYPE svg PUBLIC "-//W3C//DTD SVG 1.1//EN" "http://www.w3.org/Graphics/SVG/1.1/DTD/svg11.dtd"><svg t="1545483844618" class="icon" style="" viewBox="0 0 1024 1024" version="1.1" xmlns="http://www.w3.org/2000/svg" p-id="1079" xmlns:xlink="http://www.w3.org/1999/xlink" width="48" height="48"><defs><style type="text/css"></style></defs><path d="M829.44 210.944c-8.192-8.192-20.48-8.192-26.624 0L528.384 485.376 253.952 210.944c-8.192-8.192-20.48-8.192-26.624 0-8.192 8.192-8.192 20.48 0 26.624L501.76 512 227.328 786.432c-8.192 8.192-8.192 20.48 0 26.624 4.096 4.096 8.192 6.144 14.336 6.144s10.24-2.048 14.336-6.144l575.488-575.488C837.632 229.376 837.632 217.088 829.44 210.944zM636.928 593.92c-8.192-8.192-20.48-8.192-26.624 0-8.192 8.192-8.192 20.48 0 26.624l192.512 192.512c4.096 4.096 8.192 6.144 14.336 6.144 4.096 0 10.24-2.048 14.336-6.144 8.192-8.192 8.192-20.48 0-26.624L636.928 593.92z" p-id="1080" fill="#ffffff"></path></svg>