<?xml version="1.0" standalone="no"?><!DOCTYPE svg PUBLIC "-//W3C//DTD SVG 1.1//EN" "http://www.w3.org/Graphics/SVG/1.1/DTD/svg11.dtd"><svg t="1531055271905" class="icon" style="" viewBox="0 0 1024 1024" version="1.1" xmlns="http://www.w3.org/2000/svg" p-id="6393" xmlns:xlink="http://www.w3.org/1999/xlink" width="48" height="48"><defs><style type="text/css"></style></defs><path d="M510.54537 883.992269c-27.012214 0-54.077639-11.830443-80.880075-38.631856L131.730719 544.137954c-35.672454-44.48619-69.345368-86.529749-69.345368-168.059624 0-131.789559 107.23021-239.019769 239.019769-239.019769 49.564859 0 97.100502 15.026228 137.52519 43.50177 13.475919 9.499351 16.731056 28.146037 7.198959 41.649586-9.501398 13.471826-28.083615 16.731056-41.650609 7.198959-30.234605-21.330818-65.908082-32.596396-103.07661-32.596396-98.864682 0-179.261757 80.400145-179.261757 179.26585 0 57.332776 18.943444 84.135212 55.240115 129.486096l294.65181 297.671587c14.907525 14.906501 26.947745 20.826328 38.514175 21.001313 11.862165 0.178055 23.273053-5.765307 38.631856-21.12104l295.664883-298.686706c24.289196-26.318412 54.105269-70.749344 54.105269-128.352273 0-98.864682-80.396051-179.261757-179.261757-179.261757-44.877093 0-87.841627 16.668635-120.942513 46.933939L473.554898 368.970446c-11.68104 11.68104-30.56411 11.68104-42.244126 0-11.683087-11.683087-11.683087-30.567179 0-42.247196l126.140908-126.171608c45.115524-41.263799 102.389972-63.487963 162.233941-63.487963 131.789559 0 239.019769 107.226117 239.019769 239.019769 0 76.904531-38.423101 134.716214-70.659293 169.641655l-296.502971 299.520701C564.650639 872.161826 537.58419 883.992269 510.54537 883.992269L510.54537 883.992269zM510.54537 883.992269" p-id="6394" fill="#ffffff"></path></svg>