<?xml version="1.0" standalone="no"?><!DOCTYPE svg PUBLIC "-//W3C//DTD SVG 1.1//EN" "http://www.w3.org/Graphics/SVG/1.1/DTD/svg11.dtd"><svg t="1531055831500" class="icon" style="" viewBox="0 0 1024 1024" version="1.1" xmlns="http://www.w3.org/2000/svg" p-id="13931" xmlns:xlink="http://www.w3.org/1999/xlink" width="48" height="48"><defs><style type="text/css"></style></defs><path d="M915.80416 532.50048a40.96 40.96 0 0 1-40.96 40.96h-76.32896v5.09952c0 4.21888-0.8192 8.192-2.00704 12.02176v200.704a40.96 40.96 0 0 1-40.96 40.96h-134.51264a40.96 40.96 0 0 1-40.96-40.96V675.84c0-37.64224-30.63808-68.25984-68.28032-68.25984s-68.28032 30.6176-68.28032 68.25984v115.44576a40.96 40.96 0 0 1-40.96 40.96h-134.51264a40.96 40.96 0 0 1-40.96-40.96V573.46048h-77.9264a40.93952 40.93952 0 0 1-26.112-72.54016l362.63936-299.78624a40.98048 40.98048 0 0 1 52.20352 0l112.14848 92.69248v-2.00704a40.96 40.96 0 0 1 40.96-40.96h66.56a40.96 40.96 0 0 1 40.96 40.96v124.74368l98.67264 81.57184c11.20256 7.33184 18.61632 19.98848 18.61632 34.36544z" p-id="13932" fill="#ffffff"></path></svg>