<?xml version="1.0" standalone="no"?><!DOCTYPE svg PUBLIC "-//W3C//DTD SVG 1.1//EN" "http://www.w3.org/Graphics/SVG/1.1/DTD/svg11.dtd"><svg t="1528357725657" class="icon" style="" viewBox="0 0 1024 1024" version="1.1" xmlns="http://www.w3.org/2000/svg" p-id="1956" xmlns:xlink="http://www.w3.org/1999/xlink" width="48" height="48"><defs><style type="text/css"></style></defs><path d="M288.111435 698.937826c-42.962221 0-77.820386 34.708781-77.820386 77.602334 0 42.853798 34.858165 77.601129 77.820386 77.601129 42.981496 0 77.825205-34.747332 77.825205-77.601129 0.001205-42.881506-34.842504-77.602334-77.825205-77.602334z m486.948141-363.62481c24.559134 0 44.474127-19.846325 44.474128-44.351247 0-24.490466-19.914993-44.336791-44.474128-44.33679-24.560339 0-44.475332 19.846325-44.475331 44.33679 0 24.504922 19.914993 44.351247 44.475331 44.351247zM288.111435 197.831981c-52.789007 0-95.597026 42.689958-95.597026 95.33681s42.799586 95.350061 95.597026 95.350061c52.808282 0 95.62112-42.703209 95.62112-95.350061s-42.811633-95.336809-95.62112-95.33681z m-15.549139 337.02129c0-48.982136-39.829986-88.701289-88.948254-88.70129C134.501798 446.150776 94.680245 485.869929 94.680245 534.853271c0 49.011049 39.821553 88.703699 88.933797 88.703698 49.118268-0.001205 88.948254-39.693854 88.948254-88.703698z m604.780424-53.204631c-29.464696 0-53.385336 23.837515-53.385336 53.204631 0 29.381572 23.92064 53.233544 53.385336 53.233543 29.435784 0 53.351605-23.851972 53.351605-53.233543 0-29.367115-23.917026-53.204631-53.351605-53.204631z m-102.283144 230.581911c-34.384715 0-62.264019 27.802202-62.264018 62.07488 0 34.310024 27.879304 62.113431 62.264018 62.11343 34.394353 0 62.262814-27.802202 62.262815-62.11343-0.001205-34.272678-27.869666-62.07488-62.262815-62.07488z m-242.353091 97.558287c-38.079548 0-68.932066 30.786259-68.946523 68.720037 0 37.974739 30.866974 68.760998 68.946523 68.760998 38.044612 0 68.910381-30.786259 68.910381-68.760998 0-37.933779-30.840471-68.720038-68.910381-68.720037zM530.483802 82.540424c-58.954692 0-106.729713 47.647322-106.729713 106.423717s47.776226 106.423718 106.729713 106.423718c58.926984 0 106.709233-47.647322 106.709233-106.423718S589.410786 82.540424 530.483802 82.540424z" p-id="1957" fill="#cdcdcd"></path></svg>