<?xml version="1.0" standalone="no"?><!DOCTYPE svg PUBLIC "-//W3C//DTD SVG 1.1//EN" "http://www.w3.org/Graphics/SVG/1.1/DTD/svg11.dtd"><svg t="1531047522738" class="icon" style="" viewBox="0 0 1024 1024" version="1.1" xmlns="http://www.w3.org/2000/svg" p-id="1966" xmlns:xlink="http://www.w3.org/1999/xlink" width="48" height="48"><defs><style type="text/css"></style></defs><path d="M923.072 576.896c-17.28-4.096-34.368 6.592-38.528 23.744C843.456 774.528 689.92 896 511.296 896c-107.84 0-206.016-44.8-276.288-118.208-8.768-9.024-16.32-18.688-24-28.352-6.144-7.744-12.416-15.232-17.92-23.488-5.056-7.424-9.152-15.296-13.568-22.976-6.656-11.584-13.248-23.104-18.752-35.456-2.304-5.248-3.968-10.624-6.016-15.936C148.8 636.352 143.36 620.864 139.264 604.608c-16.064-64.576-14.72-132.352 3.968-197.504C147.328 392.96 151.488 378.88 156.992 365.504c6.08-14.656 13.632-28.736 21.632-42.816C245.312 204.736 369.92 128 511.296 128c178.688 0 332.16 121.472 373.312 295.36C888.064 438.144 901.184 448 915.712 448c2.496 0 4.864-0.256 7.36-0.896 17.28-4.032 27.904-21.312 23.744-38.528C898.816 205.76 719.68 64 511.296 64 352.192 64 210.688 146.944 130.944 276.288 130.752 276.608 130.432 276.8 130.24 277.12 127.168 282.048 125.312 287.424 122.496 292.416 113.6 308.16 104.896 323.968 97.984 340.928c-6.72 16.128-11.456 32.64-16.192 49.216C80 396.352 77.248 402.176 75.712 408.64 75.584 409.088 75.776 409.472 75.648 409.92 59.776 476.8 60.48 545.6 75.584 611.776c0.128 1.28-0.128 2.368 0.128 3.648 0.384 1.6 1.152 3.136 1.536 4.736 4.608 18.624 10.88 36.672 17.92 54.656 2.368 6.208 4.352 12.544 7.104 18.624 6.272 14.272 14.016 27.904 21.888 41.408 5.12 9.088 9.984 18.176 15.68 26.752 6.528 9.536 13.952 18.56 21.184 27.776 8.896 11.264 17.728 22.4 27.648 32.704 2.048 2.176 3.648 4.672 5.76 6.784l0.768-0.768C276.864 909.952 388.608 960 511.296 960c208.384 0 387.52-141.76 435.52-344.64C950.912 598.208 940.288 580.928 923.072 576.896z" p-id="1967" fill="#999999"></path></svg>