<?xml version="1.0" standalone="no"?><!DOCTYPE svg PUBLIC "-//W3C//DTD SVG 1.1//EN" "http://www.w3.org/Graphics/SVG/1.1/DTD/svg11.dtd"><svg t="1531045699438" class="icon" style="" viewBox="0 0 1024 1024" version="1.1" xmlns="http://www.w3.org/2000/svg" p-id="4880" xmlns:xlink="http://www.w3.org/1999/xlink" width="48" height="48"><defs><style type="text/css"></style></defs><path d="M511.887492 123.518499c-247.189619 0-448.36235 171.267037-448.362351 388.458999 0 80.714459 27.880544 157.65842 78.943676 222.508225l-30.150278 150.723994c-2.504533 12.70855 10.356637 23.028011 22.217951 17.71566l135.863109-60.304468c71.471165 40.123408 154.72929 61.689788 241.489849 61.689788 247.232666 0 448.405397-175.141237 448.405397-392.333199S759.120157 123.518499 511.887492 123.518499z m0 722.1372c-78.012302 0-159.80684-22.628851-223.175449-59.392661-4.189223-2.944783-9.73833-3.6981-14.720003-1.430323l-98.154229 43.987824 21.69552-109.763133c0.753317-3.62766 0.039133-7.32576-1.698387-10.340983a15.888134 15.888134 0 0 0-1.811873-2.796077c-46.009061-56.387221-71.070048-123.567416-71.070048-193.923281 0-185.311991 173.693304-329.780521 388.934469-329.780521 215.248992 0 388.936426 144.46853 388.936425 329.780521 0.001957 185.398084-173.687434 333.658634-388.936425 333.658634z" fill="#666666" p-id="4881"></path></svg>