<?xml version="1.0" standalone="no"?><!DOCTYPE svg PUBLIC "-//W3C//DTD SVG 1.1//EN" "http://www.w3.org/Graphics/SVG/1.1/DTD/svg11.dtd"><svg t="1531044910603" class="icon" style="" viewBox="0 0 1024 1024" version="1.1" xmlns="http://www.w3.org/2000/svg" p-id="2648" xmlns:xlink="http://www.w3.org/1999/xlink" width="48" height="48"><defs><style type="text/css"></style></defs><path d="M856.798419 793.112446l-73.742515-129.741923L783.055904 401.843134c0-100.20112-75.31636-208.644971-185.111998-248.378927-5.348821-53.104475-40.835034-91.831498-87.334068-91.831498-46.434565 0-82.048691 38.728046-87.332021 91.831498-109.73424 39.733956-185.049576 148.176784-185.049576 248.378927l0 261.527388-77.329203 136.096654c-5.158487 8.997931-5.03262 20.008706 0.125867 28.944216 5.15951 8.933463 14.724353 14.346753 25.042349 14.346753l184.04162 0c13.528108 65.310472 71.353095 114.51308 140.501988 114.51308 69.213361 0 127.036301-49.202609 140.500964-114.51308l184.04162 0c0.505513 0 0.881067 0 1.322112 0 16.045441 0 29.007661-12.898775 29.007661-28.944216C865.482195 805.697065 862.209662 798.335401 856.798419 793.112446M510.609839 119.708406c10.444886 0 18.875906 7.927553 24.287149 19.756973-8.05342-0.818645-15.85613-2.705622-24.287149-2.705622s-16.232706 1.886977-24.287149 2.705622C491.734956 127.634936 500.165975 119.708406 510.609839 119.708406M510.609839 899.258974c-36.808324 0-67.576071-23.657816-79.532381-56.500828l159.062715 0C578.186933 875.600135 547.482631 899.258974 510.609839 899.258974M235.90022 784.807293l56.502875-99.476619c2.515287-4.28049 3.89982-9.314133 3.89982-14.34573L296.302915 401.843134c0-97.747231 91.611487-207.070102 214.306924-207.070102 122.694413 0 214.431767 109.322871 214.431767 207.070102L725.041606 670.984944c0 5.031597 1.322112 10.06524 3.774977 14.34573l56.565297 99.476619L235.90022 784.807293z" p-id="2649" fill="#666666"></path></svg>