<?xml version="1.0" standalone="no"?><!DOCTYPE svg PUBLIC "-//W3C//DTD SVG 1.1//EN" "http://www.w3.org/Graphics/SVG/1.1/DTD/svg11.dtd"><svg t="1530985022646" class="icon" style="" viewBox="0 0 1024 1024" version="1.1" xmlns="http://www.w3.org/2000/svg" p-id="1073" xmlns:xlink="http://www.w3.org/1999/xlink" width="48" height="48"><defs><style type="text/css"></style></defs><path d="M864.36321 636.990712c-31.494295-31.036877-51.056839-74.143651-51.056839-121.853255 0-47.700395 19.558451-90.803076 51.048653-121.845069 0 0 10.328229-11.163247 6.074346-23.287379-13.378705-32.95046-31.346939-64.146972-53.624315-92.566232-8.382924-9.371438-22.227234-4.983501-22.227234-4.983501-42.641169 11.746532-89.763396 7.127328-131.090641-16.72287-41.324174-23.850198-68.883857-62.334697-80.030731-105.114013 0 0-4.53427-14.615882-17.662265-17.027815-20.834514-3.831258-84.36034-4.069689-108.004853 0.61603-11.05887 3.364631-13.902638 16.394389-13.902638 16.394389-11.142781 42.788525-38.706557 81.276095-80.033801 105.131409-41.324174 23.850198-88.442308 28.469402-131.079384 16.726963l0.079818 0.071631c0 0-15.108093-3.486404-23.452131 6.485715-10.609639 13.668301-46.828538 76.782757-53.629431 93.865831-2.755764 11.336186 7.321756 20.436448 7.321756 20.436448l-0.113587-0.029676c31.494295 31.0379 51.056839 74.143651 51.056839 121.849162s-19.562545 90.808192-51.052746 121.846092c0 0-10.324136 11.163247-6.074346 23.283286 13.382798 32.958646 31.351032 64.160275 53.632501 92.579535 8.377808 9.367345 22.223141 4.979408 22.223141 4.979408 42.637076-11.746532 89.763396-7.127328 131.090641 16.72287 41.320081 23.850198 68.883857 62.333674 80.026638 105.114013 0 0 5.466502 15.535835 17.662265 17.028838 12.196787 1.49812 72.390727 4.6366 108.009969-0.61603 10.609639-1.804089 13.902638-16.391319 13.902638-16.391319 11.142781-42.788525 38.70144-81.279165 80.030731-105.134479 41.323151-23.850198 88.445378-28.465309 131.079384-16.72287 0 0 15.027252 3.415796 23.37129-6.556323 10.609639-13.669324 46.828538-76.782757 53.629431-93.862761C874.327142 646.066415 864.36321 636.990712 864.36321 636.990712L864.36321 636.990712zM656.576793 597.617983c-45.565778 78.902024-146.488329 105.936751-225.410819 60.384275-78.926584-45.552475-105.965403-146.443303-60.399625-225.343281 45.569872-78.897931 146.489352-105.932658 225.410819-60.379159C675.102728 417.83127 702.142571 518.720052 656.576793 597.617983L656.576793 597.617983zM656.576793 597.617983" p-id="1074" fill="#ffffff"></path></svg>