<?xml version="1.0" standalone="no"?><!DOCTYPE svg PUBLIC "-//W3C//DTD SVG 1.1//EN" "http://www.w3.org/Graphics/SVG/1.1/DTD/svg11.dtd"><svg t="1528341327595" class="icon" style="" viewBox="0 0 1024 1024" version="1.1" xmlns="http://www.w3.org/2000/svg" p-id="1946" xmlns:xlink="http://www.w3.org/1999/xlink" width="48" height="48"><defs><style type="text/css"></style></defs><path d="M512 377.6L142.933333 748.8c-12.8 12.8-32 12.8-44.8 0-12.8-12.8-12.8-32 0-44.8L490.666667 311.466667c12.8-12.8 32-12.8 44.8 0L928 704c12.8 12.8 12.8 32 0 44.8-12.8 12.8-32 12.8-44.8 0L512 377.6zM106.666667 138.666667c-17.066667 0-32-14.933333-32-32S89.6 74.666667 106.666667 74.666667h810.666666c17.066667 0 32 14.933333 32 32s-14.933333 32-32 32H106.666667z" fill="#333333" p-id="1947"></path><path d="M480 352c0-17.066667 14.933333-32 32-32s32 14.933333 32 32v597.333333c0 17.066667-14.933333 32-32 32s-32-14.933333-32-32v-597.333333z" fill="#333333" p-id="1948"></path></svg>