<?xml version="1.0" standalone="no"?><!DOCTYPE svg PUBLIC "-//W3C//DTD SVG 1.1//EN" "http://www.w3.org/Graphics/SVG/1.1/DTD/svg11.dtd"><svg t="1531055199257" class="icon" style="" viewBox="0 0 1024 1024" version="1.1" xmlns="http://www.w3.org/2000/svg" p-id="3839" xmlns:xlink="http://www.w3.org/1999/xlink" width="48" height="48"><defs><style type="text/css"></style></defs><path d="M791.008 524.704a26.432 26.432 0 0 0-26.432 26.432v231.104a8.8 8.8 0 0 1-8.8 8.8H230.016a8.8 8.8 0 0 1-8.8-8.8V259.392c0-4.864 3.968-8.8 8.8-8.8h318.88a26.432 26.432 0 0 0 0-52.864H230.016a61.76 61.76 0 0 0-61.664 61.664v522.816a61.76 61.76 0 0 0 61.664 61.664h525.728a61.76 61.76 0 0 0 61.664-61.664v-231.104a26.4 26.4 0 0 0-26.4-26.4z m72-204.8l-133.824-132.16a26.432 26.432 0 1 0-37.12 37.6l88.896 87.776c-310.336 12.416-379.2 300.064-379.904 303.136a26.432 26.432 0 1 0 51.552 11.68c2.464-10.88 59.936-250.784 329.312-262.048l-95.36 99.904a26.432 26.432 0 0 0 38.24 36.512l138.784-145.376a26.432 26.432 0 0 0-0.576-37.024z" p-id="3840" fill="#ffffff"></path></svg>