<svg xmlns="http://www.w3.org/2000/svg" xmlns:xlink="http://www.w3.org/1999/xlink" width="100" height="109" viewBox="0 0 100 109"><defs><linearGradient id="a" x1="0.045" y1="0.143" x2="1" y2="1" gradientUnits="objectBoundingBox"><stop offset="0" stop-color="#f17875"/><stop offset="0.946" stop-color="#ffd4d3"/><stop offset="1" stop-color="#f5ee54"/></linearGradient><filter id="b" x="11" y="22" width="87" height="87" filterUnits="userSpaceOnUse"><feOffset dy="5" input="SourceAlpha"/><feGaussianBlur stdDeviation="5" result="c"/><feFlood flood-color="#ffd4d3" flood-opacity="0.502"/><feComposite operator="in" in2="c"/><feComposite in="SourceGraphic"/></filter></defs><g transform="translate(-239 -206)"><rect width="100" height="100" transform="translate(239 206)" fill="none"/><g transform="matrix(1, 0, 0, 1, 239, 206)" filter="url(#b)"><circle cx="28.5" cy="28.5" r="28.5" transform="translate(26 32)" fill="url(#a)"/></g><path d="M101.584,202.39c-2.363,0-4.73-1.035-7.074-3.379L68.451,172.664c-3.12-3.891-6.065-7.568-6.065-14.7a20.909,20.909,0,0,1,32.935-17.1,2.614,2.614,0,1,1-3.013,4.273,15.68,15.68,0,0,0-24.7,12.829c0,5.015,1.657,7.359,4.832,11.326l25.772,26.036c1.3,1.3,2.357,1.822,3.369,1.837,1.038.016,2.036-.5,3.379-1.847l25.861-26.125a16.78,16.78,0,0,0,4.732-11.226A15.68,15.68,0,0,0,109.3,146.39l-10.95,10.953a2.613,2.613,0,0,1-3.695-3.7l11.033-11.036a20.906,20.906,0,0,1,35.1,15.353A21.973,21.973,0,0,1,134.6,172.8L108.669,199c-2.352,2.354-4.72,3.389-7.085,3.389Zm0,0" transform="translate(187.614 85.942)"/></g></svg>