<svg xmlns="http://www.w3.org/2000/svg" xmlns:xlink="http://www.w3.org/1999/xlink" width="100" height="109" viewBox="0 0 100 109"><defs><linearGradient id="a" x1="0.045" y1="0.143" x2="0.931" y2="0.932" gradientUnits="objectBoundingBox"><stop offset="0" stop-color="#fef200"/><stop offset="1" stop-color="#fffede"/></linearGradient><filter id="b" x="11" y="22" width="87" height="87" filterUnits="userSpaceOnUse"><feOffset dy="5" input="SourceAlpha"/><feGaussianBlur stdDeviation="5" result="c"/><feFlood flood-color="#fffede" flood-opacity="0.502"/><feComposite operator="in" in2="c"/><feComposite in="SourceGraphic"/></filter></defs><g transform="translate(-239 -206)"><rect width="100" height="100" transform="translate(239 206)" fill="none"/><g transform="matrix(1, 0, 0, 1, 239, 206)" filter="url(#b)"><circle cx="28.5" cy="28.5" r="28.5" transform="translate(26 32)" fill="url(#a)"/></g><path d="M77.464,166.012a2.351,2.351,0,0,1-1.616-.539,3.018,3.018,0,0,1-.942-2.962l2.289-7.271C68.712,148.778,64,139.623,64,129.66,64,111.08,80.965,96,101.7,96s37.7,15.08,37.7,33.66-16.965,33.66-37.7,33.66a41.372,41.372,0,0,1-14.541-2.558l-8.348,4.847A2.6,2.6,0,0,1,77.464,166.012Zm9.559-10.906a2.965,2.965,0,0,1,1.077.135,36.184,36.184,0,0,0,13.733,2.693c17.772,0,32.313-12.656,32.313-28.274s-14.541-28.274-32.313-28.274c-17.907,0-32.448,12.656-32.448,28.274,0,8.752,4.578,16.83,12.387,22.215a2.833,2.833,0,0,1,1.077,2.962l-.808,2.558,3.5-2.02A5.726,5.726,0,0,1,87.023,155.106Zm1.212-32.179a4.039,4.039,0,1,1,4.039-4.039A3.967,3.967,0,0,1,88.235,122.928Zm26.928,0a4.039,4.039,0,1,1,4.039-4.039A3.967,3.967,0,0,1,115.163,122.928Z" transform="translate(187 124)"/></g></svg>