<svg xmlns="http://www.w3.org/2000/svg" xmlns:xlink="http://www.w3.org/1999/xlink" width="100" height="109" viewBox="0 0 100 109"><defs><linearGradient id="a" x1="0.045" y1="0.143" x2="0.907" y2="0.903" gradientUnits="objectBoundingBox"><stop offset="0" stop-color="#4bc3c2"/><stop offset="1" stop-color="#d6fdfc"/></linearGradient><filter id="b" x="11" y="22" width="87" height="87" filterUnits="userSpaceOnUse"><feOffset dy="5" input="SourceAlpha"/><feGaussianBlur stdDeviation="5" result="c"/><feFlood flood-color="#d6fdfc" flood-opacity="0.502"/><feComposite operator="in" in2="c"/><feComposite in="SourceGraphic"/></filter></defs><g transform="translate(-239 -206)"><rect width="100" height="100" transform="translate(239 206)" fill="none"/><g transform="matrix(1, 0, 0, 1, 239, 206)" filter="url(#b)"><circle cx="28.5" cy="28.5" r="28.5" transform="translate(26 32)" fill="url(#a)"/></g><path d="M168.625,70.406A31.252,31.252,0,0,1,196.75,101.5v31.25h3.125a3.125,3.125,0,1,1,0,6.25H178a12.5,12.5,0,1,1-25,0H131.125a3.125,3.125,0,1,1,0-6.25h3.125V101.5a31.252,31.252,0,0,1,28.125-31.094V67.125a3.125,3.125,0,0,1,6.25,0ZM190.5,132.75V101.5a25,25,0,0,0-50,0v31.25h50ZM171.75,139h-12.5a6.25,6.25,0,0,0,12.5,0Z" transform="translate(124 148)"/></g></svg>