<?xml version="1.0" standalone="no"?><!DOCTYPE svg PUBLIC "-//W3C//DTD SVG 1.1//EN" "http://www.w3.org/Graphics/SVG/1.1/DTD/svg11.dtd"><svg t="1545494664891" class="icon" style="" viewBox="0 0 1024 1024" version="1.1" xmlns="http://www.w3.org/2000/svg" p-id="6811" xmlns:xlink="http://www.w3.org/1999/xlink" width="48" height="48"><defs><style type="text/css"></style></defs><path d="M671.902 416.059c-52.902 0-95.941 43.04-95.941 95.941S619 607.941 671.9 607.941s95.942-43.04 95.942-95.941-43.04-95.941-95.941-95.941z" fill="#4bc3c2" p-id="6812"></path><path d="M938.27 400.157c-14.544-34.232-35.331-65.003-61.788-91.46s-57.227-47.243-91.458-61.787c-35.507-15.084-73.138-22.733-111.844-22.733H350.818c-38.707 0-76.337 7.649-111.844 22.733-34.23 14.544-65.002 35.331-91.458 61.788s-47.244 57.227-61.787 91.459C70.644 435.663 62.995 473.293 62.995 512s7.649 76.337 22.734 111.843c14.543 34.232 35.33 65.003 61.787 91.46s57.227 47.243 91.458 61.787c35.507 15.084 73.137 22.733 111.844 22.733H673.18c38.706 0 76.337-7.649 111.844-22.733 34.23-14.544 65.002-35.331 91.458-61.788s47.244-57.227 61.787-91.459c15.085-35.506 22.734-73.136 22.734-111.843s-7.648-76.337-22.734-111.843zM671.901 671.902C583.732 671.902 512 600.17 512 512s71.732-159.902 159.902-159.902S831.804 423.83 831.804 512s-71.732 159.902-159.902 159.902z" fill="#4bc3c2" p-id="6813"></path></svg>