<?xml version="1.0" standalone="no"?><!DOCTYPE svg PUBLIC "-//W3C//DTD SVG 1.1//EN" "http://www.w3.org/Graphics/SVG/1.1/DTD/svg11.dtd"><svg t="1545494627259" class="icon" style="" viewBox="0 0 1024 1024" version="1.1" xmlns="http://www.w3.org/2000/svg" p-id="6179" xmlns:xlink="http://www.w3.org/1999/xlink" width="48" height="48"><defs><style type="text/css"></style></defs><path d="M938.27 400.157c-14.544-34.232-35.331-65.003-61.788-91.46s-57.227-47.243-91.458-61.787c-35.507-15.084-73.138-22.733-111.844-22.733H350.818c-38.707 0-76.337 7.649-111.844 22.733-34.23 14.544-65.002 35.331-91.458 61.788s-47.244 57.227-61.787 91.459C70.644 435.663 62.995 473.293 62.995 512s7.649 76.337 22.734 111.843c14.543 34.232 35.33 65.003 61.787 91.46s57.227 47.243 91.458 61.787c35.507 15.084 73.137 22.733 111.844 22.733H673.18c38.706 0 76.337-7.649 111.844-22.733 34.23-14.544 65.002-35.331 91.458-61.788s47.244-57.227 61.787-91.459c15.085-35.506 22.734-73.136 22.734-111.843s-7.648-76.337-22.734-111.843zM673.18 735.863H350.819c-123.438 0-223.863-100.425-223.863-223.863S227.381 288.137 350.82 288.137h322.362c123.438 0 223.863 100.425 223.863 223.863S796.619 735.863 673.18 735.863z" fill="#999999" p-id="6180"></path><path d="M350.819 352.098c-88.17 0-159.902 71.732-159.902 159.902S262.65 671.902 350.82 671.902 510.721 600.17 510.721 512s-71.732-159.902-159.902-159.902z m0 255.843c-52.902 0-95.941-43.04-95.941-95.941s43.04-95.941 95.941-95.941S446.76 459.099 446.76 512s-43.04 95.941-95.941 95.941z" fill="#999999" p-id="6181"></path></svg>